<?xml version="1.0" encoding="UTF-8"?>
<svg version="1.1" xmlns="http://www.w3.org/2000/svg" width="840" height="697">
<path d="M0 0 C2.23335057 0.00542164 4.46669058 0.00780213 6.70004654 0.00987244 C28.42199546 0.04126258 49.95657516 0.4366909 71.51874161 3.31785583 C72.6236293 3.45707458 73.728517 3.59629333 74.86688614 3.73973083 C111.74904206 8.52803778 146.68368404 22.99154408 173.79999161 48.77488708 C175.72076218 50.57146991 177.62463016 52.25293211 179.65546036 53.91160583 C181.97249306 55.85879839 183.8966611 57.70085554 185.83124161 60.00535583 C188.41803541 63.04498007 191.06446942 66.00720207 193.76874161 68.94285583 C200.29856292 76.18340599 206.31830451 83.88369827 212.04217911 91.77488708 C212.81819473 92.84094177 213.59421036 93.90699646 214.39374161 95.00535583 C215.07178848 95.95797302 215.74983536 96.91059021 216.44842911 97.89207458 C220.68450148 102.85547259 225.45202281 103.94570385 231.69452286 104.93113708 C233.33206596 105.20906971 234.96959809 105.48706703 236.60712051 105.76512146 C237.46025833 105.9060321 238.31339615 106.04694275 239.19238663 106.19212341 C289.36488007 114.5242271 338.11173468 129.74024939 376.08905411 165.07566833 C378.10436797 166.93545958 380.15171515 168.70218964 382.26874161 170.44285583 C386.11354491 173.72677019 389.2973754 177.43021085 392.51874161 181.31785583 C392.93752579 181.80834412 393.35630997 182.2988324 393.78778458 182.80418396 C415.01227072 207.70718147 430.54796134 237.77836346 435.51874161 270.31785583 C435.70178848 271.49734802 435.88483536 272.67684021 436.07342911 273.89207458 C439.29465199 300.75167257 436.09751076 327.87949696 419.52655411 349.97410583 C406.81135443 365.06467249 389.30067532 372.03152242 370.51874161 376.31785583 C369.78879297 376.48729139 369.05884434 376.65672695 368.30677605 376.83129692 C362.3778981 378.12383583 356.81148517 378.59656927 350.75458145 378.54490662 C349.83628555 378.54519867 348.91798965 378.54549072 347.97186661 378.54579163 C344.97437039 378.54441221 341.97713122 378.5289172 338.97967911 378.51316833 C336.88646963 378.50943326 334.7932584 378.50658862 332.70004654 378.5045929 C327.21907001 378.4969954 321.73820126 378.47738062 316.257267 378.45518494 C310.65303378 378.43464245 305.04878296 378.42557328 299.44452286 378.41551208 C288.46921536 378.39413077 277.49398749 378.3600422 266.51874161 378.31785583 C266.83958295 376.55222342 267.1604748 374.78660018 267.48138809 373.02098083 C267.74942497 371.5461322 267.74942497 371.5461322 268.02287674 370.04148865 C268.38546072 368.04992664 268.75028 366.05877123 269.11639786 364.06785583 C270.22551357 357.50636458 270.7653285 351.01799421 271.07733536 344.38035583 C271.12080093 343.50572693 271.16426651 342.63109802 271.20904922 341.72996521 C271.31488943 339.59272304 271.41718071 337.45530563 271.51874161 335.31785583 C272.94336212 335.31238739 272.94336212 335.31238739 274.39676285 335.30680847 C283.42706565 335.26957466 292.45703635 335.21149921 301.48708534 335.13395309 C306.12753286 335.09474751 310.76779825 335.06242908 315.40839005 335.04685974 C319.90202681 335.03151317 324.39516188 334.99675836 328.88857269 334.94954681 C330.58737786 334.93491581 332.28625472 334.92682557 333.98512268 334.92597198 C350.27838203 334.9095802 367.8001855 333.1939107 381.83124161 324.19285583 C391.78646446 313.54308255 392.06775769 300.03773837 391.83124161 286.29051208 C390.52799561 252.2377803 369.7923569 220.01679405 345.51874161 197.31785583 C315.25912917 171.33324523 277.91684179 158.47221848 239.07342911 151.85691833 C238.32936813 151.72933136 237.58530716 151.60174438 236.81869888 151.47029114 C233.12220835 150.83833982 229.42442228 150.22197096 225.72040176 149.63572693 C207.40693073 146.64786912 191.53450384 140.544918 180.18280411 125.14988708 C178.89710328 123.34710276 177.62231084 121.53722366 176.35297012 119.72288513 C170.37287671 111.18974749 163.65447706 103.34332005 156.63202286 95.65379333 C154.73431843 93.55614593 152.9052423 91.41681802 151.08124161 89.25535583 C121.38118243 55.49606306 78.04197152 48.24288257 35.51874161 45.31785583 C16.29854287 44.16894307 -2.88321547 43.97161165 -22.10625839 45.06785583 C-23.23594543 45.13220825 -23.23594543 45.13220825 -24.38845444 45.19786072 C-65.40362347 47.60757256 -105.4575426 56.06554909 -142.48125839 74.31785583 C-143.14480331 74.64076599 -143.80834824 74.96367615 -144.49200058 75.29637146 C-160.54199738 83.1865989 -175.23531994 93.32886173 -188.48125839 105.31785583 C-189.0155748 105.79722595 -189.5498912 106.27659607 -190.10039902 106.77049255 C-201.74596639 117.24528669 -212.79137405 127.98073505 -222.48125839 140.31785583 C-223.36248695 141.39857642 -224.24537118 142.47794854 -225.12969589 143.55613708 C-232.0295646 152.03986141 -237.92374278 160.90839935 -243.48125839 170.31785583 C-243.88167343 170.98172302 -244.28208847 171.64559021 -244.6946373 172.32957458 C-252.50737542 185.34346298 -258.32039804 199.14519348 -264.15069199 213.12840271 C-265.9024841 217.32756091 -267.67878086 221.515236 -269.48125839 225.69285583 C-270.22375839 227.4369574 -270.22375839 227.4369574 -270.98125839 229.21629333 C-275.22185584 237.98461202 -281.83697939 244.45131613 -289.48125839 250.31785583 C-290.14125839 250.31785583 -290.80125839 250.31785583 -291.48125839 250.31785583 C-291.74938339 250.85410583 -292.01750839 251.39035583 -292.29375839 251.94285583 C-293.15222007 253.65977919 -294.04472541 255.35982262 -294.95782089 257.04832458 C-297.65113775 262.82859693 -298.47872967 269.06425976 -299.48125839 275.31785583 C-299.58857285 275.9781781 -299.6958873 276.63850037 -299.8064537 277.3188324 C-301.5547084 288.72411305 -301.68856513 300.17887195 -301.73125839 311.69285583 C-301.73652542 312.41824554 -301.74179245 313.14363525 -301.74721909 313.89100647 C-301.79943743 323.19442109 -301.22141519 332.14734845 -299.48125839 341.31785583 C-293.19533808 343.51293912 -286.87997672 345.34114601 -280.41875839 346.94285583 C-279.1493541 347.26769958 -279.1493541 347.26769958 -277.85430527 347.59910583 C-268.35180538 349.97289918 -259.43720423 350.47648215 -249.66875839 350.44285583 C-248.55694199 350.44672302 -247.44512558 350.45059021 -246.29961777 350.45457458 C-239.30594261 350.44639006 -232.43284102 350.08491497 -225.48125839 349.31785583 C-224.18402774 351.91231714 -224.01145465 354.48862434 -223.63116074 357.3368988 C-222.33751835 366.84919541 -220.0412277 375.54126068 -216.78594589 384.56004333 C-215.75974439 387.51574946 -214.9759943 390.24083982 -214.48125839 393.31785583 C-251.2571889 398.1636255 -296.89702404 398.15090289 -328.48125839 375.31785583 C-341.03884826 363.99543874 -345.72545859 345.64518182 -346.58826828 329.2893219 C-346.64454273 327.1772929 -346.67160733 325.06731264 -346.68438339 322.95457458 C-346.69135239 322.17312073 -346.69832138 321.39166687 -346.70550156 320.58653259 C-346.72286789 318.0594186 -346.72922813 315.53252714 -346.73125839 313.00535583 C-346.73226547 312.13947845 -346.73327255 311.27360107 -346.73431015 310.38148499 C-346.70962471 278.90137577 -345.49102406 241.97939546 -321.85625839 218.38035583 C-319.33278683 215.92557476 -316.95689087 213.63998788 -314.0408287 211.6650238 C-310.69459518 208.59647276 -309.50236631 205.52649713 -307.87969589 201.35301208 C-307.56152908 200.57177979 -307.24336227 199.79054749 -306.91555405 198.98564148 C-306.23658545 197.31777402 -305.56336849 195.64755544 -304.89544296 193.97523499 C-303.15160829 189.6208206 -301.35332483 185.28918941 -299.55157089 180.95848083 C-299.19897202 180.11018204 -298.84637314 179.26188324 -298.48308945 178.38787842 C-289.63636398 157.2517208 -277.75074088 137.25217808 -263.48125839 119.31785583 C-262.74262558 118.38715271 -262.00399277 117.45644958 -261.24297714 116.49754333 C-256.19773073 110.24108923 -250.8941884 104.25613087 -245.48125839 98.31785583 C-243.96026587 96.60966423 -242.43943201 94.90133134 -240.91875839 93.19285583 C-235.14115289 86.78332473 -229.13524814 80.76234704 -222.58282089 75.14598083 C-221.13875009 73.88980028 -219.71776747 72.60673432 -218.31719589 71.30223083 C-205.02872018 58.94705944 -190.22567274 49.24071766 -174.48125839 40.31785583 C-173.32351913 39.65656677 -173.32351913 39.65656677 -172.1423912 38.98191833 C-158.79381588 31.42935964 -144.83527178 25.67503089 -130.48125839 20.31785583 C-129.68397324 20.01895447 -128.88668808 19.7200531 -128.06524277 19.41209412 C-108.70886393 12.2719517 -88.45719702 7.69806569 -68.10625839 4.50535583 C-66.87375351 4.31062683 -65.64124863 4.11589783 -64.37139511 3.91526794 C-60.41410985 3.32642016 -56.45277493 2.79913828 -52.48125839 2.31785583 C-51.72207108 2.22463043 -50.96288376 2.13140503 -50.18069077 2.03535461 C-33.48741586 0.06370797 -16.78435843 -0.04233684 0 0 Z " fill="#fff" transform="translate(374.481258392334,6.6821441650390625)"/>
<path d="M0 0 C4.42863713 3.6835084 8.72485785 7.50839584 12.98925781 11.37988281 C13.85574951 12.16177979 13.85574951 12.16177979 14.73974609 12.95947266 C23.96638313 21.30190121 33.05836776 29.79958177 41.15332031 39.26269531 C43.34131951 41.78587736 45.60218894 44.23542801 47.86425781 46.69238281 C51.93146053 51.15160507 55.78450827 55.73583788 59.57519531 60.43066406 C62.83534297 64.41353054 66.19546048 68.30637 69.56274414 72.19873047 C72.48699925 75.58937175 75.29766332 79.03579047 78.05175781 82.56738281 C96.52739463 105.18583874 123.66772213 130.94690976 153.98925781 135.37988281 C173.87456329 136.61826091 190.65713826 132.77529924 205.98925781 119.56738281 C217.5298402 108.35212841 224.75353922 92.81215922 225.27294922 76.71044922 C225.51287655 59.38281637 220.16353009 43.9515582 208.10400391 31.36938477 C196.02013669 19.25459671 180.70049108 12.61055671 163.48925781 12.00488281 C152.6073004 12.37294902 142.56676931 15.32084997 132.98925781 20.37988281 C132.04695313 20.86070312 131.10464844 21.34152344 130.13378906 21.83691406 C113.19808894 31.03185825 98.62505633 46.09209376 86.79394531 61.13769531 C85.27856859 63.02043609 83.73846956 64.71758842 81.98925781 66.37988281 C77.63206862 64.79639125 75.16624801 61.40058537 72.30175781 57.94238281 C71.51381836 57.00664429 71.51381836 57.00664429 70.70996094 56.05200195 C69.12804397 54.16806956 67.5567832 52.27579899 65.98925781 50.37988281 C65.53728027 49.83428711 65.08530273 49.28869141 64.61962891 48.7265625 C62.05665333 45.62664796 59.51430872 42.51074231 56.98925781 39.37988281 C56.22613281 38.53554688 55.46300781 37.69121094 54.67675781 36.82128906 C52.98925781 34.37988281 52.98925781 34.37988281 53.19458008 32.44848633 C54.12000511 30.03953815 55.23636489 28.7043654 57.01660156 26.84082031 C57.63841309 26.18315674 58.26022461 25.52549316 58.90087891 24.84790039 C59.56941895 24.15720459 60.23795898 23.46650879 60.92675781 22.75488281 C61.61334473 22.03776123 62.29993164 21.32063965 63.00732422 20.58178711 C64.37958568 19.15201246 65.75517419 17.72542266 67.13427734 16.30224609 C68.64306064 14.73865572 70.13006286 13.15406993 71.61035156 11.56347656 C94.93374456 -12.97257118 125.66170461 -26.89532743 159.28613281 -28.80761719 C189.87490258 -29.41634892 216.61580134 -19.09351869 238.80175781 1.81738281 C253.31807905 17.20906011 264.15873915 37.24289281 266.98925781 58.37988281 C267.09882812 59.17265625 267.20839844 59.96542969 267.32128906 60.78222656 C270.47636624 87.41107797 263.80075863 114.44245573 247.83691406 136.07910156 C244.40364227 140.35435967 240.74455641 144.3873361 236.98925781 148.37988281 C236.46074219 148.98445312 235.93222656 149.58902344 235.38769531 150.21191406 C219.70558737 167.38181173 193.66423485 177.19142083 170.85717773 178.50244141 C134.28516507 179.83703879 104.59809749 164.41566156 77.98925781 140.37988281 C77.4455957 139.89261719 76.90193359 139.40535156 76.34179688 138.90332031 C65.61920898 129.26909119 54.94484428 119.29972924 45.61816406 108.29003906 C43.66688065 106.00184341 41.64108094 103.78889221 39.61425781 101.56738281 C35.66554336 97.19702597 31.94298572 92.67685203 28.23925781 88.09863281 C25.33743045 84.59225808 22.27892828 81.24540498 19.21191406 77.88378906 C17.02719732 75.4226231 14.97426357 72.89327715 12.92675781 70.31738281 C-8.24890358 44.20938697 -36.88011828 16.18601758 -72.01074219 12.37988281 C-91.15530958 12.27954441 -107.47189299 17.90407597 -121.28027344 31.45800781 C-132.84536892 43.83381815 -138.67278422 60.23554478 -138.32324219 77.07910156 C-136.6956585 94.27045421 -129.53914555 110.13347682 -116.44433594 121.63378906 C-101.19183557 133.33403316 -84.88050427 137.19175912 -66.01074219 135.37988281 C-45.51959906 131.79219328 -29.61867018 118.30639142 -15.01074219 104.37988281 C-14.35332031 103.76371094 -13.69589844 103.14753906 -13.01855469 102.51269531 C-7.86571489 97.54982196 -3.46661881 91.96414224 0.98925781 86.37988281 C1.73820313 85.44402344 2.48714844 84.50816406 3.25878906 83.54394531 C3.82984375 82.82980469 4.40089844 82.11566406 4.98925781 81.37988281 C9.06950994 82.93246135 11.36659205 85.84296948 14.05175781 89.12988281 C14.52419922 89.69755371 14.99664062 90.26522461 15.48339844 90.85009766 C19.54136659 95.75637949 23.4822966 100.75667535 27.37231445 105.796875 C29.901385 109.08270876 29.901385 109.08270876 32.86425781 111.96582031 C33.98925781 113.37988281 33.98925781 113.37988281 33.75097656 115.73876953 C32.91409173 118.64050677 32.00445963 119.8971479 29.92675781 122.05175781 C29.29954834 122.71151611 28.67233887 123.37127441 28.02612305 124.05102539 C27.35395752 124.73704834 26.68179199 125.42307129 25.98925781 126.12988281 C25.30226807 126.84362061 24.61527832 127.5573584 23.9074707 128.29272461 C22.54611259 129.70352244 21.18042026 131.11015306 19.81005859 132.51220703 C18.35312007 134.00665323 16.91585452 135.52026915 15.48535156 137.04003906 C-7.60013353 161.17685555 -38.7754377 175.87817368 -72.16723633 176.71191406 C-103.16368535 177.10295234 -128.95750465 167.83438721 -151.57324219 146.19238281 C-172.93038252 124.29379385 -180.60004595 97.4670178 -180.28808594 67.54003906 C-180.05666318 58.76324457 -178.7211241 50.71664374 -176.01074219 42.37988281 C-175.6972583 41.40970215 -175.6972583 41.40970215 -175.37744141 40.41992188 C-170.10938314 24.75386096 -161.55127701 12.04431908 -150.01074219 0.37988281 C-149.41777344 -0.27367187 -148.82480469 -0.92722656 -148.21386719 -1.60058594 C-107.94907217 -45.15433698 -41.67066715 -33.57534571 0 0 Z " fill="#FECD08" transform="translate(354.0107421875,276.6201171875)"/>
<path d="M0 0 C1.10925842 -0.00938095 2.21851685 -0.0187619 3.36138916 -0.02842712 C5.15815094 -0.01157616 5.15815094 -0.01157616 6.99121094 0.00561523 C8.23497498 0.00416 9.47873901 0.00270477 10.76019287 0.00120544 C13.40025588 0.00286722 16.03888569 0.01236901 18.67871094 0.03515625 C22.66848426 0.06869891 26.65756082 0.05582976 30.64746094 0.04272461 C55.78053835 0.06195405 78.60944278 2.5327011 97.67871094 20.58764648 C114.47706763 38.34774115 117.19603519 60.18911088 116.60742188 83.61010742 C115.77171614 101.93991987 107.77820126 119.26727866 94.43652344 131.88452148 C77.18161437 146.11466562 56.4366687 149.61498551 34.73730469 149.70483398 C33.65351028 149.71053406 32.56971588 149.71623413 31.45307922 149.72210693 C29.17991088 149.73149117 26.90672933 149.73806448 24.63354492 149.74194336 C21.15552572 149.75173026 17.67807832 149.78284801 14.20019531 149.81420898 C11.98340192 149.82073264 9.76660434 149.82598561 7.54980469 149.82983398 C6.51329269 149.84218079 5.4767807 149.85452759 4.40885925 149.86724854 C-1.2426177 149.84973414 -5.31511237 149.71101068 -9.52441406 145.50170898 C-9.62958035 143.68867942 -9.66407694 141.87152731 -9.67158508 140.0554657 C-9.67874039 138.87347595 -9.68589569 137.69148621 -9.69326782 136.47367859 C-9.69595673 135.16510391 -9.69864563 133.85652924 -9.70141602 132.50830078 C-9.70767789 131.1254967 -9.71432444 129.74269432 -9.72132874 128.3598938 C-9.7387649 124.59328152 -9.7492977 120.82668195 -9.75753427 117.06003928 C-9.76267912 114.70833154 -9.76875509 112.3566278 -9.77504539 110.00492287 C-9.79410518 102.65155507 -9.80833435 95.29819737 -9.81665736 87.94480962 C-9.82643228 79.44815599 -9.8527549 70.95176271 -9.89315826 62.45520085 C-9.92329167 55.89381138 -9.93812361 49.33249665 -9.94143838 42.77103931 C-9.94379218 38.84947192 -9.95279477 34.92818241 -9.97789955 31.00668907 C-10.00113695 27.31714016 -10.00543135 23.62805291 -9.99513817 19.93844986 C-9.99440471 17.9377015 -10.01352679 15.93697681 -10.03320312 13.93632507 C-10.02625931 12.74587585 -10.01931549 11.55542664 -10.01216125 10.3289032 C-10.01454961 9.2941067 -10.01693796 8.25931021 -10.01939869 7.19315624 C-8.96842338 1.47854522 -5.380557 0.00091868 0 0 Z M17.47558594 24.50170898 C17.47558594 57.83170898 17.47558594 91.16170898 17.47558594 125.50170898 C48.94384347 126.51561559 48.94384347 126.51561559 75.35058594 112.37670898 C87.15937855 99.64635905 88.06815974 84.82399495 87.78417969 68.34936523 C87.31139055 56.01565038 82.94328048 45.1629789 74.25683594 36.21655273 C57.66504998 21.80647889 38.98613173 24.50170898 17.47558594 24.50170898 Z " fill="#fff" transform="translate(27.5244140625,535.498291015625)"/>
<path d="M0 0 C0.81597656 -0.02900391 1.63195312 -0.05800781 2.47265625 -0.08789062 C8.51025412 -0.15191083 8.51025412 -0.15191083 11.6328125 2.20703125 C13.92864909 5.44644466 14.26248598 7.28668698 14.33032227 11.22119141 C14.35026749 12.24209869 14.37021271 13.26300598 14.39076233 14.31484985 C14.40747482 15.42009003 14.42418732 16.5253302 14.44140625 17.6640625 C14.46218735 18.7932309 14.48296844 19.92239929 14.50437927 21.08578491 C14.56991335 24.70295972 14.62877774 28.32020881 14.6875 31.9375 C14.73068154 34.38542444 14.77429571 36.83334128 14.81835938 39.28125 C14.92559867 45.2915875 15.02735787 51.30199935 15.125 57.3125 C15.94692841 56.48085075 15.94692841 56.48085075 16.78546143 55.63240051 C17.86473907 54.54556221 17.86473907 54.54556221 18.96582031 53.43676758 C20.03524872 52.35761833 20.03524872 52.35761833 21.12628174 51.25666809 C29.33413889 43.27282451 40.00954508 40.24498427 51.25 40 C62.35919025 40.3471622 73.08411271 42.64527888 81 51 C84.48102872 55.32665598 86.4599258 60.04871703 88.125 65.3125 C88.30100739 65.86035156 88.47701477 66.40820312 88.65835571 66.97265625 C89.32596546 70.32017929 89.29795921 73.64688585 89.31787109 77.046875 C89.33013733 78.20854187 89.33013733 78.20854187 89.34265137 79.39367676 C89.36741453 81.94994341 89.38399326 84.50615509 89.3984375 87.0625 C89.40376118 87.93644409 89.40908485 88.81038818 89.41456985 89.71081543 C89.44125513 94.33194094 89.46064935 98.95303979 89.47509766 103.57421875 C89.48846533 107.39998126 89.51637589 111.22521398 89.55712891 115.05078125 C89.60635374 119.67199281 89.63120508 124.29272201 89.63832474 128.91418457 C89.64504814 130.67489899 89.66029849 132.43560218 89.68421555 134.19616699 C89.71575803 136.65739497 89.71592183 139.11674885 89.70849609 141.578125 C89.72490143 142.3055188 89.74130676 143.0329126 89.75820923 143.78234863 C89.7114364 147.56562465 89.41192938 149.02013476 86.71757507 151.76553345 C84.171798 153.28457605 82.96355387 153.80957678 80.05859375 153.7734375 C79.32576172 153.76957031 78.59292969 153.76570312 77.83789062 153.76171875 C77.08701172 153.73722656 76.33613281 153.71273437 75.5625 153.6875 C74.80775391 153.68621094 74.05300781 153.68492187 73.27539062 153.68359375 C65.91912756 153.56693055 65.91912756 153.56693055 63.125 151.3125 C61.15572153 147.37061629 60.87441015 144.11271482 60.86962891 139.73730469 C60.86266998 138.42534119 60.85571106 137.11337769 60.84854126 135.76165771 C60.8492223 135.06507805 60.84990334 134.36849838 60.85060501 133.65081024 C60.85157547 131.45503149 60.83856583 129.25973535 60.82162476 127.06402588 C60.77551998 120.82348382 60.7507709 114.58299181 60.74414062 108.34228516 C60.73909833 104.51726406 60.71471101 100.69274683 60.67881393 96.86789703 C60.66907729 95.41841928 60.66665018 93.96887167 60.67198563 92.51937103 C60.78964703 80.82065553 60.78964703 80.82065553 56.125 70.3125 C50.37344193 66.5909036 44.38874344 66.44086591 37.83203125 67.78125 C28.69106222 70.42442177 23.13732747 75.453644 18.3515625 83.5546875 C15.01857691 91.04859777 14.82070588 98.21456521 14.78125 106.29296875 C14.7666272 107.42398514 14.75200439 108.55500153 14.73693848 109.72029114 C14.67496221 114.53273583 14.63501873 119.34530314 14.59326172 124.15795898 C14.55952266 127.68226487 14.51442955 131.20630068 14.46875 134.73046875 C14.4634729 135.81700241 14.4581958 136.90353607 14.45275879 138.022995 C14.43934448 139.03787491 14.42593018 140.05275482 14.41210938 141.09838867 C14.40481812 141.98693039 14.39752686 142.87547211 14.39001465 143.79093933 C14.0930863 146.61615239 13.35120499 148.75710499 12.125 151.3125 C8.58879497 154.16567276 4.02623181 153.6800897 -0.3125 153.6875 C-1.06337891 153.71199219 -1.81425781 153.73648438 -2.58789062 153.76171875 C-3.68713867 153.76751953 -3.68713867 153.76751953 -4.80859375 153.7734375 C-5.46915771 153.78165527 -6.12972168 153.78987305 -6.81030273 153.79833984 C-9.94544323 153.06061611 -11.58176114 151.54168152 -13.875 149.3125 C-14.49861908 146.56416988 -14.49861908 146.56416988 -14.49645996 143.34690857 C-14.50766876 142.12569305 -14.51887756 140.90447754 -14.53042603 139.64625549 C-14.51751543 138.29598525 -14.50410132 136.94571974 -14.49023438 135.59545898 C-14.4937359 134.17117654 -14.49939483 132.74689801 -14.50704956 131.32263184 C-14.5213019 127.45682845 -14.50423319 123.59173596 -14.48076439 119.72600055 C-14.46066675 115.68216887 -14.46653431 111.63836702 -14.46887207 107.59449768 C-14.46881849 100.8044969 -14.44905681 94.01477434 -14.41699219 87.22485352 C-14.38008417 79.37105067 -14.37131855 71.51761214 -14.3782897 63.6637339 C-14.38459095 56.11169536 -14.37384843 48.55978193 -14.35432434 41.00776863 C-14.34614261 37.79210695 -14.3434422 34.57650916 -14.34501648 31.36083794 C-14.34589429 27.57603198 -14.33170771 23.79157321 -14.30578995 20.00685883 C-14.29861737 18.61649572 -14.29654978 17.22609571 -14.29990768 15.83571815 C-14.30361169 13.94082438 -14.28706006 12.04592297 -14.26940918 10.15110779 C-14.26568047 9.08978858 -14.26195175 8.02846937 -14.25811005 6.93498898 C-13.82227356 3.95157365 -13.25247773 3.09163423 -10.875 1.3125 C-7.49341559 -0.3782922 -3.71552188 0.04360941 0 0 Z " fill="#fff" transform="translate(731.875,532.6875)"/>
<path d="M0 0 C9.49954967 7.3252083 14.49937429 19.31028671 17.0703125 30.73046875 C17.26697218 33.55955874 17.39212701 36.33705036 17.4453125 39.16796875 C17.50138672 40.29428711 17.50138672 40.29428711 17.55859375 41.44335938 C17.57019531 42.17619141 17.58179688 42.90902344 17.59375 43.6640625 C17.623479 44.65490845 17.623479 44.65490845 17.65380859 45.66577148 C16.70418811 49.02599759 14.71956906 50.5325732 12.0703125 52.73046875 C8.81156921 53.33174133 8.81156921 53.33174133 5.0769043 53.2980957 C4.39342422 53.29882584 3.70994415 53.29955597 3.00575256 53.30030823 C0.75952175 53.29684061 -1.48460293 53.25802516 -3.73046875 53.21875 C-5.29272835 53.20941878 -6.85500262 53.20230412 -8.4172821 53.1973114 C-12.51938624 53.17826551 -16.62059824 53.12918688 -20.72235107 53.0737915 C-24.91178317 53.02254618 -29.10136012 52.99978617 -33.29101562 52.97460938 C-41.50431462 52.92106456 -49.71688993 52.83578246 -57.9296875 52.73046875 C-57.62546147 54.17173457 -57.31683055 55.61207105 -57.00634766 57.05200195 C-56.8349527 57.85418655 -56.66355774 58.65637115 -56.48696899 59.48286438 C-54.70170901 66.68310016 -50.08193852 72.50575974 -43.96875 76.546875 C-35.78719896 81.29593624 -27.22079359 81.98945033 -17.9296875 80.73046875 C-12.59790188 79.24483189 -7.67084553 77.1834323 -2.78515625 74.59375 C0.31078233 73.15332384 2.71991009 73.31901582 6.0703125 73.73046875 C10.40396197 76.98070585 12.47491566 80.5897456 14.0703125 85.73046875 C14.3203125 89.29296875 14.3203125 89.29296875 13.0703125 92.73046875 C-0.07023002 105.11406758 -17.63081948 106.30323058 -34.6015625 106.04296875 C-41.65840104 105.7952155 -47.48626145 104.76432679 -53.9296875 101.73046875 C-54.89648438 101.28316406 -55.86328125 100.83585938 -56.859375 100.375 C-70.6687428 93.39546858 -79.74856998 82.30357459 -84.9296875 67.73046875 C-89.83696788 50.68401505 -88.133058 31.97034966 -79.7421875 16.41796875 C-71.4284281 3.13364256 -59.91294331 -4.27809015 -44.9296875 -8.26953125 C-29.05219484 -11.48334009 -13.52269211 -8.89650797 0 0 Z M-50.7421875 20.35546875 C-53.94342449 24.30862419 -57.9296875 30.43163056 -57.9296875 35.73046875 C-42.4196875 35.73046875 -26.9096875 35.73046875 -10.9296875 35.73046875 C-10.9296875 28.38995094 -11.56524044 24.26665093 -16.61328125 18.9609375 C-22.57071673 13.69533324 -26.82958958 12.25063084 -34.828125 12.42578125 C-41.47971404 13.07921191 -46.14199754 15.54086316 -50.7421875 20.35546875 Z " fill="#fff" transform="translate(479.9296875,582.26953125)"/>
<path d="M0 0 C9.13801004 7.33165922 13.17434535 17.00286059 14.7265625 28.38671875 C15.02005036 33.75832168 15.03303164 39.12243549 15.02734375 44.5 C15.0312386 46.04314792 15.03557487 47.58629479 15.04032898 49.12944031 C15.0477454 52.34422302 15.04753109 55.55889577 15.04223633 58.77368164 C15.03641321 62.8871556 15.05346273 67.00018343 15.076581 71.11358356 C15.09131873 74.29207473 15.0921906 77.470458 15.08907127 80.64897728 C15.08958333 82.16599608 15.09479941 83.68302111 15.10488319 85.20000648 C15.11724707 87.31763488 15.11045997 89.43438717 15.09887695 91.55200195 C15.09950638 92.75427933 15.1001358 93.9565567 15.1007843 95.19526672 C14.68788316 98.71658532 13.8965822 100.60242353 11.7265625 103.38671875 C8.1533157 104.57780102 5.11819309 104.66551797 1.3515625 104.76171875 C0.04445313 104.81070313 -1.26265625 104.8596875 -2.609375 104.91015625 C-6.2734375 104.38671875 -6.2734375 104.38671875 -9.19921875 102.1640625 C-11.31183611 99.33530366 -11.93109815 98.03229746 -12.0859375 94.57421875 C-12.15748047 93.38892578 -12.15748047 93.38892578 -12.23046875 92.1796875 C-12.24464844 91.58800781 -12.25882813 90.99632812 -12.2734375 90.38671875 C-12.76070312 90.95519531 -13.24796875 91.52367187 -13.75 92.109375 C-21.88158554 100.96541089 -30.68360557 106.54021834 -42.78466797 107.11499023 C-55.25134986 107.21862695 -65.1752206 104.45401774 -74.36328125 95.6328125 C-78.78369648 90.43498273 -81.82590126 84.24894111 -82.2734375 77.38671875 C-82.3559375 76.14921875 -82.4384375 74.91171875 -82.5234375 73.63671875 C-82.39264311 65.10238477 -79.22628928 57.61711119 -73.4375 51.421875 C-57.76490296 36.23020603 -33.81537512 35.70536876 -13.2734375 35.38671875 C-14.49853741 26.98374305 -14.49853741 26.98374305 -19.1484375 20.26171875 C-26.66710363 15.75051907 -34.6349132 14.7683639 -43.25634766 16.87011719 C-48.06587654 18.33807629 -52.77351023 20.13675512 -57.2734375 22.38671875 C-61.58105466 22.87437352 -63.53635531 22.95628226 -67.0234375 20.26171875 C-70.05149305 16.39253666 -72.00982479 13.23200769 -72.7109375 8.32421875 C-72.1453381 4.5266228 -70.92090382 3.15472012 -68.2734375 0.38671875 C-47.94998909 -10.44912475 -19.64510275 -13.94059697 0 0 Z M-50.2734375 61.38671875 C-53.21507206 65.10287943 -54.23275655 68.22731175 -54.3984375 72.94921875 C-52.59946556 78.44607744 -49.61271268 82.11075047 -44.5234375 84.88671875 C-38.00575498 85.88943914 -31.55621308 85.41475317 -25.93359375 81.74609375 C-19.06182162 76.11932504 -14.39089133 69.32634938 -13.2734375 60.38671875 C-13.26097329 58.05341871 -13.25980845 55.72001228 -13.2734375 53.38671875 C-25.59137405 52.88127151 -40.34923238 52.96420256 -50.2734375 61.38671875 Z " fill="#fff" transform="translate(687.2734375,581.61328125)"/>
<path d="M0 0 C0.89847656 -0.01998047 1.79695313 -0.03996094 2.72265625 -0.06054688 C4.03169922 -0.05958008 4.03169922 -0.05958008 5.3671875 -0.05859375 C6.1597998 -0.06044678 6.95241211 -0.0622998 7.76904297 -0.06420898 C11.19201756 0.66472498 12.69256316 1.91418633 15.125 4.4375 C16.52226072 7.14259281 17.43655046 9.95135896 18.359375 12.84765625 C18.63898071 13.67975113 18.91858643 14.51184601 19.20666504 15.36915588 C20.11168622 18.07453979 20.99346761 20.78688161 21.875 23.5 C22.49298243 25.36230942 23.11245628 27.22412456 23.73339844 29.08544922 C24.96904005 32.79746898 26.19570502 36.51225246 27.4140625 40.22998047 C28.9115779 44.79713114 30.43277021 49.35581654 31.96875 53.91015625 C33.46921509 58.36791974 34.96957146 62.82563777 36.453125 67.2890625 C36.7305957 68.12260254 37.00806641 68.95614258 37.29394531 69.81494141 C38.30460222 73.00427057 39.2176992 76.21742318 40.125 79.4375 C40.40472656 78.37813232 40.68445313 77.31876465 40.97265625 76.22729492 C44.1964377 64.21879476 48.04552358 52.49154207 52.125 40.75 C53.03679785 38.10962589 53.94707662 35.46873379 54.85668945 32.8276062 C55.44679085 31.1171548 56.03903638 29.40744144 56.63354492 27.69851685 C57.98539261 23.80363245 59.30664248 19.90591546 60.53515625 15.97021484 C60.75284668 15.28211227 60.97053711 14.5940097 61.19482422 13.88505554 C61.76848507 12.0581413 62.32818898 10.2268605 62.88671875 8.39526367 C64.47796865 4.59439763 66.43028924 2.28485538 70.125 0.4375 C73.24317719 0.1481887 76.36994295 0.15972696 79.5 0.125 C80.79550781 0.08149414 80.79550781 0.08149414 82.1171875 0.03710938 C85.90702223 -0.00090594 88.42588379 0.05513879 91.7890625 1.89453125 C94.16116698 6.40985293 92.6999641 11.43601216 91.34329224 16.15867615 C90.31559375 19.22629335 89.22515695 22.26409474 88.109375 25.30078125 C87.70177948 26.43490448 87.29418396 27.56902771 86.87423706 28.73751831 C85.55101713 32.41199513 84.21371633 36.08114343 82.875 39.75 C81.95861915 42.27525329 81.04443336 44.80129924 80.13037109 47.32739258 C78.75875041 51.1168237 77.38622144 54.90591007 76.00875854 58.69322205 C73.31970129 66.09636553 70.6876988 73.5158788 68.1171875 80.9609375 C67.25955702 83.42249459 66.40043257 85.88352392 65.54064941 88.34432983 C65.0182838 89.85112116 64.50212681 91.36008083 63.99255371 92.87124634 C63.29570978 94.93478198 62.57645289 96.98915034 61.8515625 99.04296875 C61.27269287 100.73135864 61.27269287 100.73135864 60.68212891 102.45385742 C58.62852431 106.38880597 56.82673732 107.96260804 53.125 110.4375 C50.22827148 111.05273438 50.22827148 111.05273438 47.24609375 111.03125 C46.16005859 111.02867187 45.07402344 111.02609375 43.95507812 111.0234375 C42.83552734 110.99507812 41.71597656 110.96671875 40.5625 110.9375 C39.43908203 110.94007813 38.31566406 110.94265625 37.15820312 110.9453125 C27.64302626 110.8322385 27.64302626 110.8322385 23.125 107.4375 C21.97705078 105.75585938 21.97705078 105.75585938 21.1953125 103.78125 C20.87208008 102.97816406 20.54884766 102.17507813 20.21582031 101.34765625 C19.85584961 100.38730469 19.49587891 99.42695312 19.125 98.4375 C18.68510742 97.28121094 18.24521484 96.12492188 17.79199219 94.93359375 C16.1637645 90.61281446 14.58115583 86.27568002 13 81.9375 C11.76648422 78.55958148 10.53184256 75.18207549 9.296875 71.8046875 C8.97055084 70.91123627 8.64422668 70.01778503 8.30801392 69.09725952 C6.05630972 62.94443222 3.76899695 56.80570408 1.46298218 50.67303467 C-0.20596409 46.23164778 -1.86481949 41.78652183 -3.52288818 37.34106445 C-4.33757789 35.16439832 -5.15675762 32.98940719 -5.98052979 30.81616211 C-7.14229712 27.74898794 -8.28759161 24.67610599 -9.4296875 21.6015625 C-9.7790033 20.69157501 -10.12831909 19.78158752 -10.48822021 18.84402466 C-12.45966299 13.47894057 -13.52422918 9.16252097 -12.875 3.4375 C-10.03305185 -1.16117501 -4.82717464 -0.03776595 0 0 Z " fill="#fff" transform="translate(294.875,575.5625)"/>
<path d="M0 0 C1.29550781 -0.04350586 1.29550781 -0.04350586 2.6171875 -0.08789062 C3.4525 -0.09626953 4.2878125 -0.10464844 5.1484375 -0.11328125 C6.2919165 -0.13515503 6.2919165 -0.13515503 7.45849609 -0.1574707 C10.74748513 0.55599604 11.64578789 1.55130932 13.625 4.3125 C14.23975618 7.90784594 14.16774583 11.48052254 14.13916016 15.12036133 C14.14984779 16.77223198 14.14984779 16.77223198 14.16075134 18.45747375 C14.18007309 22.10334068 14.1717437 25.74862989 14.1640625 29.39453125 C14.17396582 31.92796173 14.18590567 34.46138501 14.19979858 36.99479675 C14.22890524 42.98938108 14.24175229 48.9837636 14.24537504 54.97839898 C14.25241216 66.33748424 14.28785781 77.69639268 14.3388176 89.05536461 C14.35140019 92.7839346 14.35064449 96.51233409 14.34854126 100.24092102 C14.35512343 102.53276703 14.36213005 104.82461188 14.36962891 107.11645508 C14.36344292 108.6682547 14.36344292 108.6682547 14.35713196 110.25140381 C14.22154712 119.33213164 14.22154712 119.33213164 18.3125 127.0625 C20.78948713 128.46005375 20.78948713 128.46005375 24.25 129.75 C27.625 131.3125 27.625 131.3125 28.81640625 133.04296875 C30.85244124 138.75763701 30.31252473 145.3808829 28.3125 151 C26.625 153.3125 26.625 153.3125 23.625 154.3125 C13.39221587 155.13364934 3.79579676 154.36866512 -4.3125 147.625 C-14.82525128 137.24365811 -14.51731326 123.44773852 -14.6496582 109.46118164 C-14.67721254 104.79826934 -14.67881789 100.13563691 -14.67578125 95.47265625 C-14.67967437 92.97594635 -14.6840103 90.4792371 -14.68876648 87.98252869 C-14.69619144 82.775684 -14.69596251 77.5689072 -14.69067383 72.36206055 C-14.68601462 67.02472883 -14.69241979 61.68763863 -14.71118164 56.3503418 C-14.73364342 49.87621031 -14.74143531 43.40223646 -14.73750877 36.92806816 C-14.73802136 34.46931852 -14.74324722 32.01056508 -14.75332069 29.55183601 C-14.76566687 26.12039265 -14.75890617 22.68949141 -14.74731445 19.25805664 C-14.75495819 18.24858475 -14.76260193 17.23911285 -14.77047729 16.1990509 C-14.72781242 10.48030311 -14.17583518 6.34576393 -11.375 1.3125 C-7.85995709 -0.44502146 -3.87266748 0.04296599 0 0 Z " fill="#fff" transform="translate(563.375,532.6875)"/>
<path d="M0 0 C2.49710745 1.90335079 2.98268649 2.94805948 4 6 C4.14675735 8.45536342 4.22100698 10.91542552 4.25 13.375 C4.27578125 14.68210937 4.3015625 15.98921875 4.328125 17.3359375 C3.98650077 21.15074144 3.31641599 22.99765501 1 26 C-1.67454654 27.33727327 -4.15423144 27.40536328 -7.125 27.75 C-15.7182661 29.04799058 -21.27685059 32.26197003 -26.6875 39.0546875 C-33.05553644 48.49302722 -34.28588069 58.86268676 -34.23828125 69.984375 C-34.25368456 72.07422536 -34.26998695 74.16406926 -34.28710938 76.25390625 C-34.30361916 79.51495759 -34.312445 82.77553095 -34.30541992 86.03662109 C-34.30280507 89.2072467 -34.33085828 92.37644069 -34.36328125 95.546875 C-34.35307449 96.52090271 -34.34286774 97.49493042 -34.33235168 98.49847412 C-34.3989638 103.10277279 -34.49831626 105.31666937 -37.2878418 109.11621094 C-39.88353311 110.91910536 -40.95106637 111.6271313 -44.03125 111.59375 C-45.12373047 111.58988281 -45.12373047 111.58988281 -46.23828125 111.5859375 C-46.98464844 111.55757812 -47.73101562 111.52921875 -48.5 111.5 C-49.24636719 111.50257813 -49.99273437 111.50515625 -50.76171875 111.5078125 C-55.29100205 111.42764819 -58.31879712 110.88832842 -62 108 C-63.12997628 105.74004744 -63.13246958 104.5049563 -63.14717102 101.99674988 C-63.15432632 101.15981094 -63.16148163 100.32287201 -63.16885376 99.46057129 C-63.17154266 98.54054321 -63.17423157 97.62051514 -63.17700195 96.67260742 C-63.18357315 95.70498978 -63.19014435 94.73737213 -63.19691467 93.74043274 C-63.21667362 90.52877735 -63.22831568 87.31716876 -63.23828125 84.10546875 C-63.24235678 83.01028742 -63.2464323 81.91510609 -63.25063133 80.78673744 C-63.27150254 74.99088351 -63.28580007 69.19505333 -63.29516602 63.39916992 C-63.30623634 57.40667112 -63.34064071 51.41454305 -63.38033772 45.42217541 C-63.40645724 40.81967977 -63.41485369 36.2172731 -63.41844749 31.61470985 C-63.42332503 29.4054851 -63.43497202 27.19626461 -63.45348549 24.98711205 C-63.47777864 21.89629947 -63.47692973 18.80645457 -63.4699707 15.71557617 C-63.48278076 14.80162079 -63.49559082 13.88766541 -63.50878906 12.9460144 C-63.47442046 8.76169265 -63.34987624 6.56594108 -61.10404968 2.93321228 C-58.72299143 0.74548302 -57.7781558 0.35989584 -54.59375 0.3359375 C-53.76746094 0.32949219 -52.94117188 0.32304688 -52.08984375 0.31640625 C-51.23519531 0.33574219 -50.38054687 0.35507812 -49.5 0.375 C-48.21802734 0.34599609 -48.21802734 0.34599609 -46.91015625 0.31640625 C-42.82459447 0.34827491 -40.69893799 0.43720484 -37.453125 3.05078125 C-35.67764415 6.65424373 -35.33304432 9.86789497 -35.25 13.8125 C-35.22035156 14.50537109 -35.19070312 15.19824219 -35.16015625 15.91210938 C-35.09000372 17.60746213 -35.04267338 19.30373312 -35 21 C-34.5875 20.35933594 -34.175 19.71867188 -33.75 19.05859375 C-25.82932366 7.19525933 -15.3896974 -2.80042035 0 0 Z " fill="#fff" transform="translate(221,575)"/>
<path d="M0 0 C1.29550781 -0.04350586 1.29550781 -0.04350586 2.6171875 -0.08789062 C3.4525 -0.09626953 4.2878125 -0.10464844 5.1484375 -0.11328125 C6.2919165 -0.13515503 6.2919165 -0.13515503 7.45849609 -0.1574707 C10.69591185 0.54480846 11.65023348 1.6348015 13.625 4.3125 C14.23665785 7.52180328 14.18150981 10.6997151 14.15844727 13.95874023 C14.16706284 14.9364035 14.17567841 15.91406677 14.18455505 16.9213562 C14.20726773 20.15487096 14.20046597 23.38752274 14.19140625 26.62109375 C14.19663967 28.86784626 14.20291511 31.11459656 14.21018982 33.36134338 C14.22060401 38.07148574 14.21601804 42.78132617 14.20141602 47.49145508 C14.18423177 53.52892196 14.20771454 59.56543688 14.24290562 65.60279751 C14.264862 70.24309095 14.26344224 74.88315604 14.2551403 79.52348518 C14.25431973 81.74944159 14.26120325 83.97541459 14.27591133 86.20132256 C14.29332293 89.31376585 14.27884155 92.4244912 14.25610352 95.53686523 C14.26779572 96.45702927 14.27948792 97.3771933 14.29153442 98.32524109 C14.22422446 102.85153497 14.09290332 104.7158735 11.21459961 108.38601685 C8.65302464 110.2916516 7.67189645 110.93450655 4.55859375 110.87109375 C3.4593457 110.86045898 3.4593457 110.86045898 2.33789062 110.84960938 C1.21157227 110.80030273 1.21157227 110.80030273 0.0625 110.75 C-1.06961914 110.74129883 -1.06961914 110.74129883 -2.22460938 110.73242188 C-9.56771927 110.57067937 -9.56771927 110.57067937 -12.375 108.3125 C-14.90393904 103.65658618 -14.66414947 99.07430576 -14.6496582 93.91992188 C-14.6573246 92.51172935 -14.6573246 92.51172935 -14.66514587 91.0750885 C-14.67902703 87.97707719 -14.67808642 84.87928868 -14.67578125 81.78125 C-14.67966854 79.62560951 -14.68400328 77.46996979 -14.68876648 75.31433105 C-14.69622518 70.79855871 -14.69593959 66.28286456 -14.69067383 61.76708984 C-14.6848749 55.97986395 -14.70182227 50.19295765 -14.7250185 44.40578461 C-14.73974719 39.95512012 -14.74062879 35.5045328 -14.73750877 31.05384827 C-14.73802226 28.92000189 -14.74326514 26.78615123 -14.75332069 24.65232849 C-14.76565296 21.66969994 -14.75891288 18.68769662 -14.74731445 15.70507812 C-14.75495819 14.82388809 -14.76260193 13.94269806 -14.77047729 13.0348053 C-14.72990297 8.31568765 -14.47131662 5.13128361 -11.375 1.3125 C-7.85995709 -0.44502146 -3.87266748 0.04296599 0 0 Z " fill="#fff" transform="translate(252.375,575.6875)"/>
<path d="M0 0 C4.40617281 2.16303029 7.1644597 4.41114924 9 9 C10.68569037 18.34791934 5.55166187 26.1264235 1 34 C0.31357422 35.22783203 0.31357422 35.22783203 -0.38671875 36.48046875 C-2 38 -2 38 -5.1875 38.25 C-6.115625 38.1675 -7.04375 38.085 -8 38 C-9.46495337 35.46195322 -10.92204322 32.91990283 -12.375 30.375 C-12.99375 29.30572266 -12.99375 29.30572266 -13.625 28.21484375 C-16.99361393 22.29260314 -19.77994751 17.06957044 -18.68359375 10.03125 C-15.62716202 0.94928144 -8.69191914 -0.96131825 0 0 Z " fill="#fff" transform="translate(257,531)"/>
</svg>
